<svg width="20" height="29" viewBox="0 0 20 29" fill="none" xmlns="http://www.w3.org/2000/svg">
<path fill-rule="evenodd" clip-rule="evenodd" d="M10 0.000161814C9.73479 0.000161791 9.48044 0.105518 9.2929 0.293054C9.10536 0.480591 9.00001 0.734945 9.00001 1.00016L9 24.5862L2.708 18.2922C2.52023 18.1044 2.26556 17.9989 2 17.9989C1.73445 17.9989 1.47978 18.1044 1.292 18.2922C1.10423 18.4799 0.998742 18.7346 0.998742 19.0002C0.998742 19.2657 1.10423 19.5204 1.292 19.7082L9.292 27.7082C9.3849 27.8013 9.49525 27.8752 9.61674 27.9256C9.73823 27.976 9.86847 28.002 10 28.002C10.1315 28.002 10.2618 27.976 10.3833 27.9256C10.5048 27.8752 10.6151 27.8013 10.708 27.7082L18.708 19.7082C18.801 19.6152 18.8747 19.5048 18.9251 19.3833C18.9754 19.2619 19.0013 19.1317 19.0013 19.0002C19.0013 18.7346 18.8958 18.4799 18.708 18.2922C18.5202 18.1044 18.2656 17.9989 18 17.9989C17.7345 17.9989 17.4798 18.1044 17.292 18.2922L11 24.5862L11 1.00016C11 0.734945 10.8946 0.480591 10.7071 0.293054C10.5196 0.105518 10.2652 0.000161838 10 0.000161814Z" fill="#008CEF"/>
</svg>
