<!-- Generated by IcoMoon.io -->
<svg version="1.1" xmlns="http://www.w3.org/2000/svg" width="1820" height="1024" viewBox="0 0 1820 1024">
<title></title>
<g id="icomoon-ignore">
</g>
<path d="M1820.444 56.889c0 31.419-25.469 56.889-56.889 56.889h-1706.667c-31.419 0-56.889-25.47-56.889-56.889s25.47-56.889 56.889-56.889h1706.667c31.42 0 56.889 25.47 56.889 56.889zM1820.444 967.111c0 31.42-25.469 56.889-56.889 56.889h-1706.667c-31.419 0-56.889-25.469-56.889-56.889s25.47-56.889 56.889-56.889h1706.667c31.42 0 56.889 25.469 56.889 56.889zM1820.444 511.545c0 31.168-25.264 56.434-56.434 56.434h-1707.577c-31.168 0-56.434-25.266-56.434-56.434s25.266-56.434 56.434-56.434h1707.577c31.169 0 56.434 25.266 56.434 56.434z"></path>
</svg>
