<!-- Generated by IcoMoon.io -->
<svg version="1.1" xmlns="http://www.w3.org/2000/svg" width="1126" height="1024" viewBox="0 0 1126 1024">
<title></title>
<g id="icomoon-ignore">
</g>
<path d="M201.606 1023.974c-47.644 0-89.955-17.889-126.933-53.678-39.111-37.847-58.667-83.784-58.667-137.805s19.556-99.958 58.667-137.805l613.332-629.679c31.288-30.968 67.379-50.925 108.268-59.871s82.309-6.538 124.268 7.226c41.953 13.763 80.712 37.505 116.265 71.226 11.377 11.699 21.868 24.602 31.468 38.71s17.423 28.903 23.465 44.387c6.047 15.484 10.67 31.828 13.87 49.032s4.797 34.409 4.797 51.613c-1.423 72.946-27.023 133.85-76.8 182.71l-464 476.905c-6.4 6.881-14.223 10.491-23.465 10.834-9.247 0.348-17.244-2.58-24.003-8.771-6.753-6.195-10.309-13.937-10.664-23.229-0.356-9.288 2.667-17.372 9.067-24.253l464-476.905c37.688-37.161 56.888-83.269 57.6-138.322s-17.423-100.129-54.4-135.226c-22.758-22.71-48-39.914-75.735-51.613-27.73-11.699-57.6-15.484-89.6-11.355s-60.442 18.236-85.33 42.322l-613.336 629.68c-26.311 25.462-39.466 56.084-39.466 91.868s13.155 66.412 39.466 91.873c12.089 11.699 25.244 20.47 39.466 26.322 14.222 5.847 29.156 8.084 44.8 6.707 31.289-1.377 60.445-15.483 87.467-42.322l487.467-501.677c3.553-3.441 6.932-7.054 10.132-10.839s6.579-8.258 10.132-13.42c3.558-5.161 6.4-10.666 8.535-16.516s3.553-11.699 4.265-17.548c0.712-5.85-0.353-11.871-3.2-18.065-2.842-6.193-7.112-12.043-12.8-17.548-13.512-13.763-26.665-19.957-39.465-18.58-13.512 1.376-28.8 9.978-45.865 25.806l-366.936 377.806c-4.266 4.132-9.245 7.055-14.934 8.776s-11.555 1.889-17.6 0.517c-6.044-1.377-11.2-4.132-15.466-8.259-7.111-6.195-10.666-13.763-10.666-22.712 0-8.945 3.2-16.86 9.6-23.741l366.932-378.838c29.158-27.527 58.67-42.666 88.535-45.419 34.135-2.753 65.423 9.634 93.865 37.161 27.023 25.463 38.932 55.398 35.732 89.807s-20.444 66.753-51.732 97.032l-487.465 502.711c-39.822 38.538-84.266 59.182-133.334 61.937-1.422 0-3.022 0.169-4.8 0.512-1.778 0.348-3.378 0.517-4.8 0.517z"></path>
</svg>
