<!-- Generated by IcoMoon.io -->
<svg version="1.1" xmlns="http://www.w3.org/2000/svg" width="1024" height="1024" viewBox="0 0 1024 1024">
<title></title>
<g id="icomoon-ignore">
</g>
<path d="M589.127 512l398.769-398.768c8.964-10.464 13.647-23.925 13.115-37.692s-6.239-26.826-15.982-36.568c-9.744-9.742-22.8-15.449-36.569-15.981-13.765-0.532-27.227 4.151-37.691 13.112l-398.769 398.769-398.769-399.316c-10.464-8.961-23.925-13.644-37.692-13.112s-26.826 6.239-36.568 15.981c-9.742 9.742-15.449 22.801-15.981 36.568s4.151 27.227 13.112 37.692l398.771 399.315-399.318 398.769c-5.726 4.903-10.377 10.941-13.66 17.727s-5.128 14.178-5.419 21.713c-0.291 7.53 0.978 15.045 3.728 22.063s6.921 13.395 12.252 18.727c5.331 5.329 11.706 9.5 18.726 12.249 7.020 2.753 14.532 4.021 22.065 3.73s14.925-2.135 21.712-5.419c6.786-3.285 12.821-7.932 17.725-13.659l399.316-398.769 398.769 398.769c10.464 8.96 23.926 13.643 37.691 13.111 13.769-0.532 26.825-6.239 36.569-15.982 9.744-9.74 15.451-22.8 15.982-36.565 0.532-13.769-4.151-27.231-13.115-37.695l-398.769-398.769z"></path>
</svg>
