<!-- Generated by IcoMoon.io -->
<svg version="1.1" xmlns="http://www.w3.org/2000/svg" width="751" height="1024" viewBox="0 0 751 1024">
<title></title>
<g id="icomoon-ignore">
</g>
<path d="M381.041 18.995c-9.261 0-18.142 3.679-24.69 10.227s-10.227 15.429-10.227 24.69v823.554l-219.698-219.769c-6.557-6.557-15.449-10.24-24.721-10.24s-18.165 3.683-24.721 10.24c-6.556 6.556-10.24 15.449-10.24 24.721 0 9.274 3.683 18.162 10.24 24.723l279.336 279.334c3.243 3.256 7.096 5.83 11.338 7.591s8.79 2.669 13.383 2.669c4.592 0 9.14-0.908 13.382-2.669s8.095-4.335 11.338-7.591l279.336-279.334c3.249-3.249 5.823-7.1 7.578-11.346 1.761-4.239 2.662-8.786 2.662-13.376 0-9.273-3.68-18.165-10.24-24.721-6.556-6.556-15.448-10.24-24.721-10.24s-18.164 3.684-24.721 10.24l-219.698 219.769v-823.554c0-9.261-3.679-18.142-10.227-24.69s-15.43-10.227-24.69-10.227z"></path>
</svg>
