<!-- Generated by IcoMoon.io -->
<svg version="1.1" xmlns="http://www.w3.org/2000/svg" width="1024" height="1024" viewBox="0 0 1024 1024">
<title></title>
<g id="icomoon-ignore">
</g>
<path d="M820.48 651.106l-108.373-12.373c-12.74-1.498-25.66-0.090-37.777 4.126-12.117 4.211-23.125 11.115-32.196 20.194l-78.507 78.507c-121.122-61.602-219.57-160.051-281.172-281.173l78.933-78.935c18.347-18.347 27.307-43.946 24.32-69.973l-12.373-107.52c-2.419-20.814-12.408-40.012-28.064-53.937s-35.888-21.608-56.842-21.583h-73.813c-48.213 0-88.32 40.107-85.333 88.32 22.613 364.375 314.025 655.362 677.972 677.975 48.213 2.987 88.32-37.12 88.32-85.333v-73.813c0.427-43.093-32-79.36-75.093-84.48z"></path>
</svg>
