<svg aria-hidden="true" style="position:absolute;width:0;height:0" xmlns="http://www.w3.org/2000/svg" overflow="hidden"><defs><symbol id="icon-heroid-arrow" viewBox="0 0 22 32"><path d="M11.034 0a1.102 1.102 0 00-1.103 1.103v26.026l-6.943-6.945a1.105 1.105 0 10-1.562 1.562l8.828 8.828a1.1 1.1 0 001.562 0l8.828-8.828a1.11 1.11 0 00.324-.781 1.107 1.107 0 00-1.886-.781l-6.943 6.945V1.103A1.102 1.102 0 0011.036 0z"/></symbol><symbol id="icon-right-arrow" viewBox="0 0 22 32"><path d="M2.819 29.197l14.758-13.196L2.819 2.805 5.099.763l16.997 15.246-16.997 15.23-2.28-2.042z"/></symbol><symbol id="icon-left-arrow" viewBox="0 0 22 32"><path d="M19.581 2.803L4.823 15.999l14.758 13.196-2.28 2.042L.304 15.991 17.301.761l2.28 2.042z"/></symbol><symbol id="icon-clip" viewBox="0 0 35 32"><path d="M6.3 31.999c-1.489 0-2.811-.559-3.967-1.677C1.111 29.139.5 27.704.5 26.016s.611-3.124 1.833-4.306L21.5 2.033c.978-.968 2.106-1.591 3.383-1.871s2.572-.204 3.883.226 2.522 1.172 3.633 2.226c.356.366.683.769.983 1.21s.544.903.733 1.387a8.796 8.796 0 01.583 3.145c-.044 2.28-.844 4.183-2.4 5.71l-14.5 14.903c-.2.215-.444.328-.733.339s-.539-.081-.75-.274a1 1 0 01-.333-.726c-.011-.29.083-.543.283-.758l14.5-14.903c1.178-1.161 1.778-2.602 1.8-4.323s-.544-3.129-1.7-4.226c-.711-.71-1.5-1.247-2.367-1.613s-1.8-.484-2.8-.355-1.889.57-2.667 1.323L3.864 23.13c-.822.796-1.233 1.753-1.233 2.871s.411 2.075 1.233 2.871c.378.366.789.64 1.233.823s.911.253 1.4.21c.978-.043 1.889-.484 2.733-1.323l15.233-15.677a4.621 4.621 0 00.634-.758c.111-.161.2-.333.267-.516s.111-.366.133-.548c.022-.183-.011-.371-.1-.565s-.222-.376-.4-.548c-.422-.43-.833-.624-1.233-.581-.422.043-.9.312-1.433.806L10.864 22.001c-.133.129-.289.22-.467.274s-.361.059-.55.016a.997.997 0 01-.483-.258c-.222-.194-.333-.43-.333-.71s.1-.527.3-.742L20.798 8.742c.911-.86 1.833-1.333 2.767-1.419 1.067-.086 2.044.301 2.933 1.161.844.796 1.217 1.731 1.117 2.806s-.639 2.086-1.617 3.032l-15.233 15.71c-1.244 1.204-2.633 1.849-4.167 1.936-.044 0-.094.005-.15.016s-.106.016-.15.016z"/></symbol><symbol id="icon-more-img" viewBox="0 0 32 32"><path stroke-linejoin="round" stroke-linecap="round" stroke-width="1.032" d="M16 .516V4.94m11.06.001l-3.318 3.318M4.94 4.941l3.318 3.318M16 31.483v-4.424m11.06.001l-3.318-3.318M4.94 27.06l3.318-3.318M.516 16H4.94m22.12 0h4.424"/></symbol><symbol id="icon-tel" viewBox="0 0 32 32"><path d="M25.64 20.347l-3.387-.387a2.647 2.647 0 00-2.187.76l-2.453 2.453a20.062 20.062 0 01-8.787-8.787l2.467-2.467a2.656 2.656 0 00.76-2.187l-.387-3.36c-.076-.65-.388-1.25-.877-1.686s-1.121-.675-1.776-.674H6.706c-1.507 0-2.76 1.253-2.667 2.76.707 11.387 9.813 20.48 21.187 21.187 1.507.093 2.76-1.16 2.76-2.667v-2.307c.013-1.347-1-2.48-2.347-2.64z"/></symbol><symbol id="icon-burger" viewBox="0 0 57 32"><path d="M56.889 1.778c0 .982-.796 1.778-1.778 1.778H1.778a1.778 1.778 0 110-3.556h53.333c.982 0 1.778.796 1.778 1.778zm0 28.444c0 .982-.796 1.778-1.778 1.778H1.778a1.778 1.778 0 110-3.556h53.333c.982 0 1.778.796 1.778 1.778zm0-14.236c0 .974-.789 1.764-1.764 1.764H1.763a1.764 1.764 0 010-3.528h53.362c.974 0 1.764.79 1.764 1.764z"/></symbol><symbol id="icon-open-list" viewBox="0 0 48 32"><path d="M26.446 29.102a3.2 3.2 0 01-4.891 0L2.115 6.064C.359 3.983 1.838.8 4.561.8h38.88c2.722 0 4.201 3.183 2.445 5.264l-19.44 23.038z"/></symbol><symbol id="icon-list-mark" viewBox="0 0 32 32"><path d="M0 13.714C0 6.14 6.14 0 13.714 0H32v18.286C32 25.86 25.86 32 18.286 32H0V13.714z"/></symbol><symbol id="icon-close" viewBox="0 0 32 32"><path d="M18.41 16L30.872 3.539a1.713 1.713 0 00-.089-2.321 1.708 1.708 0 00-2.321-.089L16 13.591 3.538 1.112a1.713 1.713 0 00-2.321.089 1.708 1.708 0 00-.089 2.321L13.59 16.001 1.111 28.463a1.713 1.713 0 00-.596 1.233A1.708 1.708 0 001.6 31.353a1.71 1.71 0 001.923-.479l12.479-12.462 12.462 12.462a1.713 1.713 0 002.321-.089 1.712 1.712 0 00.089-2.321L18.412 16.002z"/></symbol><symbol id="icon-down-arrow" viewBox="0 0 107 32"><path d="M53.333 32L7.145 0h92.376L53.333 32z"/></symbol><symbol id="icon-up-arrow" viewBox="0 0 107 32"><path d="M53.333 0l46.188 32H7.145L53.333 0z"/></symbol></defs></svg>